HIERARCHY
ROOT Hips
{
	OFFSET -0.001795 -0.223333 0.028219
	CHANNELS 6 Xposition Yposition Zposition Zrotation Yrotation Xrotation 
	JOINT LeftUpLeg
	{
		OFFSET 0.069520 -0.091406 -0.006815
		CHANNELS 3 Zrotation Yrotation Xrotation
		JOINT LeftLeg
		{
			OFFSET 0.034277 -0.375199 -0.004496
			CHANNELS 3 Zrotation Yrotation Xrotation
			JOINT LeftFoot
			{
				OFFSET -0.013596 -0.397961 -0.043693
				CHANNELS 3 Zrotation Yrotation Xrotation
				JOINT LeftToe
				{
					OFFSET 0.026358 -0.055791 0.119288
					CHANNELS 3 Zrotation Yrotation Xrotation
					End Site
					{
						OFFSET 0.000000 0.000000 0.000000
					}
				}
			}
		}
	}
	JOINT RightUpLeg
	{
		OFFSET -0.067670 -0.090522 -0.004320
		CHANNELS 3 Zrotation Yrotation Xrotation
		JOINT RightLeg
		{
			OFFSET -0.038290 -0.382569 -0.008850
			CHANNELS 3 Zrotation Yrotation Xrotation
			JOINT RightFoot
			{
				OFFSET 0.015774 -0.398415 -0.042312
				CHANNELS 3 Zrotation Yrotation Xrotation
				JOINT RightToe
				{
					OFFSET -0.025372 -0.048144 0.123348
					CHANNELS 3 Zrotation Yrotation Xrotation
					End Site
					{
						OFFSET 0.000000 0.000000 0.000000
					}
				}
			}
		}
	}
	JOINT Spine
	{
		OFFSET -0.002533 0.108963 -0.026696
		CHANNELS 3 Zrotation Yrotation Xrotation
		JOINT Spine1
		{
			OFFSET 0.005487 0.135180 0.001092
			CHANNELS 3 Zrotation Yrotation Xrotation
			JOINT Spine2
			{
				OFFSET 0.001457 0.052922 0.025425
				CHANNELS 3 Zrotation Yrotation Xrotation
				JOINT Neck
				{
					OFFSET -0.002778 0.213870 -0.042857
					CHANNELS 3 Zrotation Yrotation Xrotation
					JOINT Head
					{
						OFFSET 0.005152 0.064970 0.051349
						CHANNELS 3 Zrotation Yrotation Xrotation
						End Site
						{
							OFFSET 0.000000 0.000000 0.000000
						}
					}
				}
				JOINT LeftShoulder
				{
					OFFSET 0.078845 0.121749 -0.034090
					CHANNELS 3 Zrotation Yrotation Xrotation
					JOINT LeftArm
					{
						OFFSET 0.090977 0.030469 -0.008868
						CHANNELS 3 Zrotation Yrotation Xrotation
						JOINT LeftForeArm
						{
							OFFSET 0.259612 -0.012772 -0.027456
							CHANNELS 3 Zrotation Yrotation Xrotation
							JOINT LeftHand
							{
								OFFSET 0.249234 0.008986 -0.001171
								CHANNELS 3 Zrotation Yrotation Xrotation
								End Site
								{
									OFFSET 0.000000 0.000000 0.000000
								}
							}
						}
					}
				}
				JOINT RightShoulder
				{
					OFFSET -0.081759 0.118833 -0.038615
					CHANNELS 3 Zrotation Yrotation Xrotation
					JOINT RightArm
					{
						OFFSET -0.096012 0.032551 -0.009143
						CHANNELS 3 Zrotation Yrotation Xrotation
						JOINT RightForeArm
						{
							OFFSET -0.253742 -0.013329 -0.021401
							CHANNELS 3 Zrotation Yrotation Xrotation
							JOINT RightHand
							{
								OFFSET -0.255298 0.007772 -0.005559
								CHANNELS 3 Zrotation Yrotation Xrotation
								End Site
								{
									OFFSET 0.000000 0.000000 0.000000
								}
							}
						}
					}
				}
			}
		}
	}
}
MOTION
Frames: 12
Frame Time: 0.050000
0.056973 0.950243 -0.003793 0.921276 8.845340 13.668230 5.674287 -1.188582 -16.813589 -4.803179 0.405477 5.925192 0.930629 7.020725 11.592884 0.000000 0.000000 0.000000 -5.633098 0.878061 -15.962138 -5.268338 0.642133 0.641978 1.723079 -1.090276 14.847136 0.000000 0.000000 0.000000 6.511016 -1.518018 10.278693 -3.390418 1.415187 2.615903 -5.434311 8.522706 4.527633 17.296439 -13.612546 -1.964897 0.000000 0.000000 0.000000 -13.659345 -19.398143 5.001818 -36.013053 -24.382455 3.351475 -55.491948 -65.456133 35.902948 0.000000 0.000000 0.000000 -2.860648 8.749866 3.211105 26.955031 24.042968 2.099134 20.585436 71.439404 22.898017 0.000000 0.000000 0.000000 
0.054886 0.950524 -0.004581 0.818776 8.513762 13.230156 6.004993 -1.130364 -16.509648 -5.054347 0.445566 6.158372 1.061601 7.233385 11.728733 0.000000 0.000000 0.000000 -5.430301 0.905529 -15.976339 -5.215824 0.679857 1.202067 1.883577 -0.811857 14.688607 0.000000 0.000000 0.000000 6.563513 -1.509054 10.252910 -3.000808 1.235695 2.778627 -5.251379 8.360169 4.617443 16.578736 -13.080856 -1.770240 0.000000 0.000000 0.000000 -13.166706 -18.822437 4.859066 -37.142696 -24.823267 3.528235 -51.384049 -64.568852 32.511553 0.000000 0.000000 0.000000 -2.925724 8.497860 3.091108 26.677286 24.392279 2.137953 22.923013 74.564323 26.049373 0.000000 0.000000 0.000000 
0.053173 0.951120 -0.005221 0.789661 8.312741 12.841658 6.196136 -1.093042 -16.291423 -5.211301 0.471536 6.451254 1.105736 7.348457 11.945502 0.000000 0.000000 0.000000 -5.524239 0.884659 -15.591472 -4.802118 0.620129 1.062746 2.021488 -0.620255 14.763814 0.000000 0.000000 0.000000 6.791779 -1.538861 10.314960 -3.125676 1.304872 2.667585 -5.010343 8.475034 4.738569 16.625403 -13.056832 -1.952467 0.000000 0.000000 0.000000 -12.596474 -18.960641 4.989172 -37.788794 -24.916072 3.567349 -47.666169 -64.287501 29.796049 0.000000 0.000000 0.000000 -2.895084 8.152116 2.956798 26.634075 24.335952 2.113522 29.064605 76.630402 32.114910 0.000000 0.000000 0.000000 
0.051909 0.951022 -0.005770 0.841701 8.516144 12.487721 6.153305 -1.092810 -16.216753 -5.087838 0.450439 6.880059 1.010283 7.195831 11.882087 0.000000 0.000000 0.000000 -5.502200 0.865568 -15.229665 -4.759199 0.621435 1.120680 1.919755 -0.730657 14.609708 0.000000 0.000000 0.000000 6.922872 -1.533682 10.158555 -2.899187 1.198510 2.612569 -5.013283 8.715196 4.930858 16.595885 -13.101825 -1.841352 0.000000 0.000000 0.000000 -12.575251 -18.870417 4.874329 -38.426147 -24.683314 3.568977 -46.102171 -64.217466 28.557692 0.000000 0.000000 0.000000 -2.934884 8.125879 2.935853 27.186787 24.077684 2.137333 35.339106 78.346472 38.648980 0.000000 0.000000 0.000000 
0.051125 0.950556 -0.006312 0.995305 8.784268 12.145653 6.106735 -1.086759 -16.005711 -5.190833 0.459875 7.064522 0.881961 6.970079 11.745790 0.000000 0.000000 0.000000 -5.639796 0.827571 -14.877669 -4.681226 0.624138 1.249578 1.758569 -0.901772 14.330666 0.000000 0.000000 0.000000 7.279501 -1.580811 10.147309 -3.269865 1.372398 2.694510 -4.900088 8.883509 4.838563 16.779772 -13.169466 -2.068836 0.000000 0.000000 0.000000 -12.465345 -18.579178 4.693456 -39.276507 -24.117551 3.489974 -46.110677 -64.650010 28.671933 0.000000 0.000000 0.000000 -2.829830 7.985123 2.895644 27.780334 23.833646 2.176871 44.734207 79.402216 47.778947 0.000000 0.000000 0.000000 
0.050578 0.949870 -0.006938 1.181740 9.432374 12.074441 5.756022 -1.132712 -16.084333 -4.771153 0.386538 7.166182 0.607251 6.511691 11.486181 0.000000 0.000000 0.000000 -5.810656 0.785956 -14.767739 -4.607911 0.634362 1.457389 1.398633 -1.379447 14.038117 0.000000 0.000000 0.000000 7.462804 -1.575410 9.839369 -3.388581 1.424062 2.527480 -4.844025 9.325664 5.066440 17.100844 -13.195416 -2.697977 0.000000 0.000000 0.000000 -12.194656 -18.407154 4.493304 -40.206670 -23.394097 3.331287 -47.959333 -65.630793 30.204373 0.000000 0.000000 0.000000 -2.491848 8.060100 2.979800 28.180790 23.170201 2.052604 50.753619 80.222604 54.238270 0.000000 0.000000 0.000000 
0.049886 0.949139 -0.007738 1.414668 10.266485 12.044603 5.611424 -1.172145 -16.214061 -4.743266 0.366229 7.211041 0.234785 5.922662 11.287730 0.000000 0.000000 0.000000 -5.822238 0.756959 -14.706220 -4.869792 0.693005 1.755313 0.946234 -2.004555 13.724741 0.000000 0.000000 0.000000 7.603863 -1.561493 9.498035 -3.490529 1.462871 2.370861 -4.807186 9.797231 5.201764 17.410980 -13.158442 -3.414495 0.000000 0.000000 0.000000 -11.935708 -17.702513 4.023531 -41.554562 -22.382554 3.109128 -52.262436 -66.610589 33.415025 0.000000 0.000000 0.000000 -2.482805 8.356989 3.103773 29.281696 22.547421 2.069193 55.789920 80.200204 59.267139 0.000000 0.000000 0.000000 
0.048831 0.948930 -0.008632 1.806282 11.255793 12.061223 5.318113 -1.222698 -16.286026 -4.690341 0.341552 7.061710 -0.280191 5.202084 11.315048 0.000000 0.000000 0.000000 -5.753956 0.729607 -14.638417 -5.507337 0.803194 2.073688 0.436812 -2.758488 13.557565 0.000000 0.000000 0.000000 7.533368 -1.506613 9.093050 -3.420030 1.413243 2.395353 -4.900073 10.305666 5.431234 18.159212 -13.218846 -4.730229 0.000000 0.000000 0.000000 -11.479317 -17.358087 3.724302 -42.578498 -22.207823 3.078150 -54.255893 -67.236078 34.813102 0.000000 0.000000 0.000000 -1.747637 8.678538 3.377394 29.696193 22.682077 2.124445 51.346033 79.986721 55.355662 0.000000 0.000000 0.000000 
0.047582 0.948847 -0.009668 1.874974 12.186955 12.101702 5.439282 -1.253402 -16.506810 -4.740229 0.331769 7.015480 -0.726388 4.580486 11.341989 0.000000 0.000000 0.000000 -5.551335 0.721320 -14.535019 -5.753102 0.841627 2.101023 -0.001956 -3.440521 13.577351 0.000000 0.000000 0.000000 7.581213 -1.480836 8.765871 -3.478506 1.435003 2.104103 -4.893671 10.995894 5.714887 19.073807 -13.491789 -5.832901 0.000000 0.000000 0.000000 -11.001125 -17.340897 3.555951 -43.355199 -22.359979 3.136204 -56.756807 -67.933018 36.591824 0.000000 0.000000 0.000000 -1.133767 9.426012 3.833543 30.706632 23.179701 2.367749 40.934672 79.028197 45.598133 0.000000 0.000000 0.000000 
0.046324 0.948913 -0.010762 2.015233 13.196182 12.317394 5.345946 -1.307204 -16.762703 -4.532845 0.289842 6.704814 -1.236934 3.900651 11.440119 0.000000 0.000000 0.000000 -5.461599 0.701000 -14.473793 -5.930116 0.855340 1.923230 -0.474112 -4.190342 13.717471 0.000000 0.000000 0.000000 7.509452 -1.395253 8.077768 -3.674877 1.512780 2.021290 -4.854767 11.573981 5.876072 19.232500 -13.239795 -6.626759 0.000000 0.000000 0.000000 -10.313884 -17.657231 3.591380 -43.817369 -22.967387 3.293961 -56.937805 -68.447279 36.615276 0.000000 0.000000 0.000000 -1.058050 10.729132 4.426738 31.761099 24.194841 2.844513 27.239082 77.065776 32.766046 0.000000 0.000000 0.000000 
0.045338 0.949168 -0.011823 2.118624 14.132699 12.363909 5.329168 -1.345177 -16.926378 -4.451842 0.265785 6.564679 -1.721234 3.271493 11.576439 0.000000 0.000000 0.000000 -5.333555 0.684661 -14.323490 -6.128831 0.881849 1.876497 -0.900802 -4.868200 13.888741 0.000000 0.000000 0.000000 7.111249 -1.300309 7.710301 -3.607926 1.487200 1.535361 -4.826148 12.368632 5.913760 19.615782 -13.165237 -7.405237 0.000000 0.000000 0.000000 -9.608283 -18.090398 3.643500 -44.590989 -23.666534 3.514404 -55.350285 -68.655611 34.987773 0.000000 0.000000 0.000000 -0.406989 12.042006 5.201467 31.946070 25.867022 3.353076 17.728537 74.419678 23.841210 0.000000 0.000000 0.000000 
0.044536 0.949499 -0.012549 2.270852 14.986544 12.378020 5.240169 -1.372496 -16.927117 -4.373150 0.246585 6.290385 -2.191033 2.677688 11.745634 0.000000 0.000000 0.000000 -5.415638 0.646814 -14.232945 -6.058611 0.890169 2.035337 -1.298588 -5.491945 14.006097 0.000000 0.000000 0.000000 7.178257 -1.217582 6.933694 -3.823535 1.594806 1.080815 -4.855690 13.056038 6.261505 19.745477 -12.689477 -8.577815 0.000000 0.000000 0.000000 -8.828562 -18.554290 3.776342 -45.207308 -24.643458 3.740200 -53.883868 -68.809798 33.570697 0.000000 0.000000 0.000000 -0.578432 13.560884 5.859883 32.667758 27.692388 4.126786 10.110578 71.609175 16.985429 0.000000 0.000000 0.000000 
